# xmcd
#
# Track frame offsets:
#	150
#	25084
#	49743
#	68013
#	89137
#	107279
#	133398
#	149250
#	170988
#	180851
#	195742
#	218566
#	237338
#	254408
#	283451
#
# Disc length: 4110 seconds
#
# Revision: 0
# Processed by: cddbd v1.5.1PL2 Copyright (c) Steve Scherf et al.
# Submitted via: audiograbber 1.83.01
#
DISCID=e4100c0f
DTITLE=Bob Brozman and Schnapka - Kosmik Blues and Grooves
DYEAR=1998
DGENRE=Blues
TTITLE0=Tropical Funk (Puin Sai)
TTITLE1=Jinx Blues-Hop
TTITLE2=Three-Beat Ska
TTITLE3=Calcutta Blues
TTITLE4=Maj Khamaj
TTITLE5=Indian Camel Hump Blues
TTITLE6=Schadenfreude Blues
TTITLE7=Aloha Afrika
TTITLE8=Five Pound Axe Blues
TTITLE9=Afrikanische Mazurka
TTITLE10=Schlaflied Fur Zoe
TTITLE11=Toast Hawaii (Debussy In Madagascar)
TTITLE12=Blues Schlaflied
TTITLE13=A Joint Von Mumbassa
TTITLE14=Blackest Blues
EXTD=
EXTT0=
EXTT1=
EXTT2=
EXTT3=
EXTT4=
EXTT5=
EXTT6=
EXTT7=
EXTT8=
EXTT9=
EXTT10=
EXTT11=
EXTT12=
EXTT13=
EXTT14=
PLAYORDER=
